<?xml version="1.0" encoding="UTF-8" standalone="no"?>
<svg
   xmlns:dc="http://purl.org/dc/elements/1.1/"
   xmlns:cc="http://creativecommons.org/ns#"
   xmlns:rdf="http://www.w3.org/1999/02/22-rdf-syntax-ns#"
   xmlns:svg="http://www.w3.org/2000/svg"
   xmlns="http://www.w3.org/2000/svg"
   xmlns:sodipodi="http://sodipodi.sourceforge.net/DTD/sodipodi-0.dtd"
   xmlns:inkscape="http://www.inkscape.org/namespaces/inkscape"
   width="{{ include.width }}"
   height="{{ include.height }}"
   class="{{ include.class }}"
   viewBox="0 0 512 512"
   role="img"
   version="1.1"
   id="svg6"
   sodipodi:docname="logo.svg"
   inkscape:version="1.0.1 (3bc2e813f5, 2020-09-07)">
  <metadata
     id="metadata12">
    <rdf:RDF>
      <cc:Work
         rdf:about="">
        <dc:format>image/svg+xml</dc:format>
        <dc:type
           rdf:resource="http://purl.org/dc/dcmitype/StillImage" />
      </cc:Work>
    </rdf:RDF>
  </metadata>
  <defs
     id="defs10" />
  <sodipodi:namedview
     pagecolor="#ffffff"
     bordercolor="#666666"
     borderopacity="1"
     objecttolerance="10"
     gridtolerance="10"
     guidetolerance="10"
     inkscape:pageopacity="0"
     inkscape:pageshadow="2"
     inkscape:window-width="1920"
     inkscape:window-height="1018"
     id="namedview8"
     showgrid="false"
     inkscape:zoom="0.83007813"
     inkscape:cx="234.11773"
     inkscape:cy="410.11038"
     inkscape:window-x="-6"
     inkscape:window-y="-6"
     inkscape:window-maximized="1"
     inkscape:current-layer="svg6" />
  <g
     id="g903"
     transform="translate(-0.69457093,-0.24215763)"
     style="fill:#ffffff;fill-opacity:1">
    <path
       style="fill:#ffffff;fill-opacity:1;stroke:none;stroke-width:10.2223;stroke-linecap:round;stroke-miterlimit:4;stroke-dasharray:none;stroke-opacity:1;paint-order:stroke fill markers"
       d="m 310.92109,442.70853 c -26.55993,-1.96627 -40.83577,-11.19373 -44.75955,-28.93121 -0.72743,-3.28838 -1.13801,-23.0726 -1.4131,-68.09198 -0.25825,-42.26155 -0.6847,-63.81466 -1.27678,-64.52807 -1.32,-1.5905 -29.06237,-1.52007 -30.38794,0.0772 -0.52419,0.6316 -1.54306,4.56078 -2.26416,8.73152 -5.93773,34.34262 -19.61658,64.96081 -40.68381,91.06499 -12.2908,15.22939 -31.57299,32.83646 -51.99044,47.47379 -14.80775,10.61573 -19.36103,12.90148 -25.70006,12.90148 -6.05372,0 -13.040797,-2.83656 -17.178061,-6.97382 -4.775456,-4.77546 -20.019366,-27.31785 -21.29941,-31.49715 -1.513107,-4.94024 -0.879261,-10.14693 1.903861,-15.63916 2.271517,-4.48261 4.278788,-6.26152 18.071158,-16.01516 34.409922,-24.33388 53.365582,-49.03069 62.035862,-80.82485 1.19162,-4.36967 1.96368,-8.47359 1.71571,-9.1198 -0.37019,-0.9647 -6.36506,-1.21979 -33.50146,-1.42556 -32.434268,-0.24592 -33.117678,-0.28644 -36.64835,-2.17304 -4.882944,-2.60918 -9.451818,-7.34536 -11.631097,-12.05703 -1.605703,-3.47157 -1.807699,-5.43623 -1.803293,-17.53919 0.0045,-12.49627 0.164372,-13.92878 1.921905,-17.22639 2.923073,-5.48447 6.642354,-9.26767 11.482101,-11.67941 l 4.388588,-2.18693 h 60.796426 c 40.27947,0 61.35248,-0.29759 62.44414,-0.88182 1.60555,-0.85927 1.64771,-2.44645 1.64771,-62.03086 0,-69.518641 -0.21371,-67.089224 6.53628,-74.305503 2.11873,-2.265103 5.63568,-4.996959 7.81543,-6.070792 3.80472,-1.874357 4.79766,-1.952422 24.83365,-1.952422 20.05648,0 21.02557,0.07641 24.84735,1.959058 2.1873,1.077481 5.5707,3.688142 7.5187,5.801466 6.80123,7.378462 6.36587,2.596291 6.6221,72.739843 0.20957,57.37202 0.34794,62.70049 1.65356,63.67621 1.10886,0.82868 14.95338,1.06482 62.42839,1.06482 h 61.00353 l 4.38859,2.18693 c 5.08141,2.53216 9.07443,6.74848 11.60252,12.25133 1.56113,3.39812 1.78255,5.50648 1.79372,17.0804 0.0116,12.01555 -0.16102,13.55638 -1.91802,17.12218 -2.32935,4.72736 -7.07259,9.64835 -11.69894,12.13734 -3.32546,1.78911 -4.34888,1.83912 -42.54518,2.07911 -26.51117,0.16656 -39.49665,0.54375 -40.25018,1.16912 -1.44479,1.19907 -1.64421,93.4909 -0.21089,97.60251 1.09003,3.1269 2.99426,3.63108 13.71385,3.63108 8.4463,0 12.61035,-1.26406 14.70748,-4.46468 1.731,-2.64184 3.5411,-15.27965 4.72899,-33.01697 0.51773,-7.73059 1.3461,-15.86938 1.84083,-18.0862 1.75557,-7.86662 9.59497,-15.2958 17.37084,-16.46186 5.10546,-0.76561 32.94535,1.87154 36.83134,3.48887 3.979,1.65604 9.98033,7.40659 12.41108,11.89244 1.65145,3.04769 1.82885,4.55732 1.68038,14.29938 -0.26125,17.14154 -1.80021,35.80964 -4.52942,54.94373 -2.75277,19.29925 -3.75231,22.20447 -11.34647,32.97957 -6.18507,8.77579 -15.4889,12.6413 -34.92708,14.51132 -14.14661,1.36095 -65.97536,1.55769 -82.77238,0.31419 z"
       id="path891" />
    <path
       style="fill:#ffffff;fill-opacity:1;stroke:none;stroke-width:10.2223;stroke-linecap:round;stroke-miterlimit:4;stroke-dasharray:none;stroke-opacity:1;paint-order:stroke fill markers"
       d="m 131.17954,202.28917 c -7.13663,-3.47491 -10.01272,-7.32154 -16.69421,-22.32768 -3.33003,-7.47899 -9.47249,-20.66718 -13.64991,-29.30708 -4.17742,-8.63991 -7.821071,-17.12075 -8.097001,-18.84632 -0.851495,-5.32496 1.72246,-12.20499 6.318818,-16.88983 3.491233,-3.55844 6.007883,-4.93335 19.418573,-10.6088 13.44743,-5.691008 16.05807,-6.520519 20.52144,-6.520519 6.23309,0 14.06203,3.551019 18.18711,8.249229 2.72952,3.10875 12.81988,23.21728 21.72172,43.28804 7.96912,17.96779 8.49356,20.80515 5.3824,29.12048 -3.20837,8.57511 -6.71565,11.34175 -23.71992,18.71087 -17.80683,7.71693 -22.42375,8.52309 -29.38902,5.13161 z"
       id="path893" />
    <path
       style="fill:#ffffff;fill-opacity:1;stroke:none;stroke-width:10.2223;stroke-linecap:round;stroke-miterlimit:4;stroke-dasharray:none;stroke-opacity:1;paint-order:stroke fill markers"
       d="m 352.35966,197.5373 c -11.71798,-5.03988 -16.49342,-7.54678 -19.05865,-10.00496 -4.52268,-4.33394 -6.89639,-9.7166 -6.90094,-15.64865 -0.003,-4.15163 1.14437,-7.29197 9.80554,-26.83345 5.39503,-12.17236 11.49367,-26.29212 13.55254,-31.37726 6.10458,-15.077559 11.41506,-19.639029 22.92248,-19.689415 5.92366,-0.02594 7.46143,0.396282 21.11663,5.797886 8.10024,3.204219 16.3406,7.056049 18.3119,8.559609 5.08258,3.87661 8.59716,11.23369 8.58749,17.97618 -0.007,4.51089 -0.90106,7.24822 -7.51959,23.00897 -11.56137,27.53119 -20.8722,46.38529 -24.35914,49.32638 -4.68861,3.95467 -9.12684,5.57928 -15.28543,5.59525 -5.04217,0.0131 -6.93456,-0.58669 -21.17283,-6.71054 z"
       id="path895" />
    <path
       style="fill:#ffffff;fill-opacity:1;stroke:none;stroke-width:10.2223;stroke-linecap:round;stroke-miterlimit:4;stroke-dasharray:none;stroke-opacity:1;paint-order:stroke fill markers"
       d="m 309.64331,505.7618 c -36.45333,-2.28716 -60.4867,-11.82553 -80.35662,-31.89193 -5.54143,-5.59624 -15.14844,-18.8412 -16.3017,-22.47478 -0.48805,-1.53774 -1.47516,-0.91603 -8.80704,5.54696 -17.21702,15.17665 -42.39205,33.0985 -55.10944,39.23185 -11.77294,5.67788 -22.04051,7.95021 -35.92308,7.95021 -15.776971,0 -27.42633,-2.55137 -39.892077,-8.73691 C 58.5634,488.09799 48.453674,478.70553 35.054468,459.89845 23.231847,443.30424 19.506786,437.28355 16.51719,429.93726 7.163279,406.95202 8.0716403,382.44974 19.119781,359.73457 25.12786,347.38185 33.066317,337.61122 43.848242,329.29885 l 2.965406,-2.28619 -3.817262,-3.18176 c -12.27245,-10.22937 -22.3566,-24.47432 -27.047683,-38.20778 -6.0613509,-17.745 -6.9165766,-50.25189 -1.807546,-68.70432 3.72606,-13.45752 11.364177,-26.53797 21.935896,-37.56572 l 5.513243,-5.75107 -3.472067,-7.4527 C 31.476581,151.89321 28.86331,139.15908 29.735823,125.30298 31.771725,92.97145 50.305764,65.978749 79.887227,52.263221 93.880979,45.774977 110.87656,39.014999 117.69937,37.223481 c 14.38453,-3.77707 35.38687,-2.905302 48.90582,2.029992 l 5.46342,1.9945 8.09263,-7.763928 c 12.91614,-12.391517 26.11408,-19.4429 43.11348,-23.034624 8.85785,-1.8715318 40.47535,-2.6621849 54.52838,-1.3635808 21.57201,1.9934138 37.90736,9.1592408 52.51829,23.0382058 l 6.32606,6.009137 6.83819,-2.495633 c 11.19741,-4.086546 20.26549,-5.423123 33.02834,-4.868167 13.56539,0.589852 19.33104,2.0265 39.40426,9.818486 24.16695,9.381089 31.85144,13.807058 42.56456,24.515532 17.75535,17.74765 27.2761,43.935679 24.92891,68.570119 -1.02719,10.78063 -2.5088,16.4685 -7.80619,29.96771 l -4.28039,10.90759 4.60276,4.85174 c 12.48207,13.15725 19.66886,26.73377 23.1795,43.78822 0.98793,4.79929 1.34987,11.44626 1.34516,24.70381 -0.007,19.45 -0.63463,25.37484 -3.7167,35.08037 l -1.96516,6.18829 2.41435,4.19393 c 3.36067,5.83777 7.17692,16.09297 8.91673,23.9615 2.80807,12.69981 1.41953,49.41699 -3.11892,82.47398 -3.71817,27.08227 -5.57989,34.38115 -11.94341,46.82437 -12.25178,23.9571 -26.00827,37.86096 -47.3072,47.814 -20.81721,9.72794 -40.60277,12.33149 -92.14903,12.12576 -17.21044,-0.0687 -36.08339,-0.42554 -41.9399,-0.79299 z m 90.72263,-31.87007 c 20.97304,-2.30888 36.80594,-8.72143 47.32482,-19.16722 6.72292,-6.67621 15.22719,-20.18519 18.70339,-29.71021 4.92327,-13.49006 10.91062,-68.38443 10.00038,-91.68726 -0.57867,-14.81458 -5.2316,-25.82727 -15.2762,-36.15622 -4.20352,-4.32252 -4.69968,-5.16277 -3.59159,-6.0824 2.46579,-2.04643 7.89572,-12.32717 9.86033,-18.66906 1.81637,-5.86334 1.97692,-7.89558 1.9517,-24.70382 -0.0253,-16.87937 -0.18063,-18.74889 -1.9814,-23.85196 -5.21842,-14.78807 -15.39564,-26.66569 -28.33199,-33.06566 l -7.34075,-3.63168 7.62524,-17.64223 c 10.04861,-23.24906 12.69199,-31.22783 13.24137,-39.96777 1.3115,-20.86402 -10.49773,-42.146946 -28.67217,-51.673777 -9.50398,-4.981877 -34.86049,-14.282196 -42.5803,-15.617704 -11.6998,-2.024033 -25.49262,0.624469 -36.40531,6.990558 -4.9237,2.872324 -14.13349,11.485678 -16.6709,15.591288 l -1.79654,2.906859 -1.57609,-6.269349 c -2.27842,-9.063039 -6.24815,-16.273894 -12.85216,-23.3454 -6.55626,-7.020392 -12.95714,-11.587135 -20.24282,-14.442369 -8.87024,-3.476224 -14.91327,-4.032432 -39.6119,-3.64593 -21.17945,0.331431 -23.43841,0.512861 -28.53717,2.291971 -14.50195,5.060175 -26.48719,15.517037 -32.79518,28.6131 -2.56593,5.327157 -3.42326,8.018892 -5.05071,15.857765 -0.44828,2.159215 -0.66928,2.024408 -7.15081,-4.362039 C 171.20073,75.151445 162.12308,70.007877 152.05,67.40228 144.83345,65.535577 132.79321,65.54295 125.70669,67.41841 118.00506,69.456661 90.793327,81.171498 84.947734,84.965415 70.218232,94.52518 60.948172,111.69442 60.914036,129.47864 c -0.01982,10.32894 1.25003,14.33545 11.018482,34.76437 5.043162,10.54683 9.41244,19.94186 9.709507,20.87784 0.461023,1.45256 -0.209703,1.99252 -4.580045,3.68716 -16.416679,6.36571 -30.047081,22.60627 -33.711189,40.16671 -1.024345,4.90923 -1.25615,10.13746 -1.000877,22.57417 0.304596,14.83971 0.517981,16.70469 2.566728,22.43328 3.23129,9.03517 7.059544,15.02672 14.085218,22.0446 4.916106,4.91066 7.814218,6.96399 14.055619,9.95846 9.860979,4.73108 14.217299,5.61949 27.555191,5.61949 h 10.66428 l -1.67321,2.3426 c -6.63191,9.28513 -21.55358,22.58003 -38.72682,34.50482 -5.771111,4.00735 -12.593256,9.5547 -15.160322,12.32744 -14.890882,16.08393 -18.623717,40.86562 -9.024646,59.91319 2.8364,5.62831 16.996939,26.1603 23.021735,33.38023 12.61132,15.11301 36.090353,22.64548 55.284913,17.73634 8.22511,-2.10363 13.13091,-4.60931 25.76726,-13.16084 32.59941,-22.06133 57.42083,-46.09141 76.1924,-73.76326 l 6.01804,-8.8714 0.0147,13.58268 c 0.0259,23.82283 1.86649,35.14405 7.60953,46.80506 9.77244,19.84255 28.71569,32.41901 55.28018,36.70061 18.73777,3.02011 80.01724,3.48316 104.48518,0.78954 z"
       id="path897" />
  </g>
</svg>
